<?xml version="1.0" encoding="utf-8"?>
<!-- Generator: Adobe Illustrator 26.4.1, SVG Export Plug-In . SVG Version: 6.00 Build 0)  -->
<svg version="1.1" id="Layer_1" xmlns="http://www.w3.org/2000/svg" xmlns:xlink="http://www.w3.org/1999/xlink" x="0px" y="0px"
	 viewBox="0 0 1024 1024" style="enable-background:new 0 0 1024 1024;" xml:space="preserve">
<style type="text/css">
	.st0{fill:#FFFFFF;}
</style>
<g>
	<path d="M393.93,442.55c-2.9-7.34-1.36-13.86,4.18-19.23c2.99-2.89,3.37-5.63,1.99-9.4c-5.1-13.97-9.57-28.18-15.02-42.01
		c-5.53-14.03-8.98-28.35-9.4-43.42c-0.06-2.13-0.7-4.25-1.31-7.75c-1.95,3.4-3.17,5.66-4.5,7.84c-5.51,9.02-14.24,9.25-17.58-0.68
		c-3.04-9.05-2.95-19.24-3.63-28.97c-0.27-3.84,1.28-7.78,1.77-11.7c1.3-10.6-1.72-20.19-8.14-28.43
		c-12.03-15.44-12.68-31.34-6.03-49.55c4.82-13.21,6.64-27.68,8.53-41.75c2.04-15.17,9.92-26.07,22.81-32.66
		c12.62-6.46,26.08-11.43,39.49-16.15c8.25-2.9,15.65-6.22,21.75-12.84c10.56-11.46,25.09-13.35,39.44-13.35
		c21.08,0,42.16,1.29,63.23,2.16c3.04,0.13,6.04,1.06,9.07,1.54c21.02,3.35,33,14.32,35.05,36.75c0.95,10.36,6.59,20.34,10.41,30.38
		c7.87,20.7,7.92,42.62,10.48,64.17c1.01,8.46,2.29,17.01,4.66,25.16c3.18,10.93,2.91,21.15-2.27,31.32
		c-2.38,4.68-4.29,9.59-6.35,14.25c11.4,11.51,14.52,36.6,6.55,50.48c-4.63,8.06-10.5,9.29-17.84,3.73c-1.18-0.9-2.36-1.79-4.74-3.6
		c0.6,6.85,1.09,12.38,1.64,18.72c9.2-5.28,17.76-10.27,26.4-15.13c7.12-4,14.19-3.05,20.4,1.66c4.14,3.15,8.1,6.96,10.98,11.25
		c6.29,9.38,14.24,16.69,24.01,22.12c7.28,4.05,12.87,9.52,17.11,16.86c2.02,3.51,6.06,6.16,9.7,8.36
		c8.81,5.31,17.88,10.19,26.91,15.13c10.84,5.93,17.49,15.89,24.32,25.57c2.06,2.92,3.12,6.78,3.81,10.37
		c1.56,8.07,5.09,14.48,11.34,20.18c4.45,4.05,7.75,9.9,10.12,15.56c2.69,6.43,5.8,11.89,11.17,16.64
		c4.77,4.21,8.75,9.77,11.74,15.43c3.67,6.95,2.25,13.96-2.75,20.32c-4.94,6.28-4.38,9.7,1.91,14.89c4.57,3.76,9.73,6.91,13.85,11.1
		c9.68,9.84,12.86,22.6,15.33,35.75c1.61,8.57,3.07,17.68,7.13,25.17c12.24,22.56,16.6,47.03,20.47,71.84
		c1.2,7.72,2.67,15.8,6.09,22.69c9.34,18.87,10.02,38.27,6.91,58.52c-1.15,7.51-0.21,15.32-0.39,22.99
		c-0.49,21.5-0.2,43.06-1.91,64.46c-1.14,14.38-11.92,24.59-20.46,35.42c-1.11,1.41-3.31,2.42-5.14,2.7
		c-9.76,1.48-18.17,5.72-26.03,11.52c-3.24,2.39-7.67,4.35-10.45-0.13c-2.9-4.68,0.07-8.59,4.24-10.88
		c4.89-2.68,10.15-4.7,14.99-8.38c-5.3-0.8-10.71-1.17-15.85-2.56c-2.56-0.69-6.07-2.94-6.51-5.04c-0.48-2.28,1.67-5.57,3.48-7.75
		c1.6-1.92,4.21-3.15,6.57-4.28c18.52-8.88,28.88-23.64,29.89-43.98c1.66-33.39,1.35-66.76-5.76-99.68
		c-0.55-2.55-1.39-5.12-2.54-7.46c-15.62-31.64-24.01-65.46-30.39-99.91c-2.09-11.3-5.41-22.03-12.17-31.7
		c-10.4-14.89-25.9-17.18-39.55-4.81c-4.7,4.26-8.96,9.12-12.79,14.17c-10.77,14.22-23.24,26.36-39.45,34.29
		c-6.53,3.19-9.04,8.32-7.84,15.7c1.12,6.86,1.43,13.85,2.3,22.89c5.47-6.93,10.08-12.83,14.74-18.68
		c5.18-6.5,9.63-13.84,15.77-19.25c14.82-13.05,34.05-12.85,49.47-0.54c6.18,4.93,12.6,9.63,18.29,15.08
		c7.22,6.91,5.93,11.27-3.39,14.65c-17.53,6.36-35.11,12.59-52.48,19.37c-6.06,2.37-12.35,5.31-17.13,9.57
		c-7.75,6.92-15.33,12.56-26.56,9.07c-2.57,8.84,0.18,16.35,3.15,23.54c0.65,1.57,4.85,2.6,7.24,2.34
		c6.74-0.75,13.36-2.81,20.1-3.32c3.2-0.24,6.57,1.88,9.87,2.93c-1.09,3.29-1.27,7.52-3.46,9.69c-5.11,5.06-11.2,9.15-16.91,13.61
		c-2.39,1.87-4.82,3.68-7.23,5.52c0.15,0.73,0.29,1.46,0.44,2.18c8.69-0.76,17.45-1.05,26.06-2.39
		c20.75-3.22,30.91,2.08,39.07,21.15c3.72,8.71-0.6,16.19-10.21,16.56c-5.42,0.21-10.88-1.12-16.33-1.68
		c-10.91-1.11-21.84-2.14-32.75-3.26c-4.82-0.49-6.37,2.28-4.65,5.94c2.3,4.87,5.46,9.4,8.68,13.76c3.3,4.46,7.59,8.65,4.83,14.71
		c-2.84,6.24-8.91,7.76-14.99,7.57c-8.7-0.27-17.37-1.36-23.82-1.9c-5.61,5.06-9.82,9.56-14.72,13.12
		c-6.57,4.76-13.87,8.51-20.46,13.25c-3.09,2.23-4.97,6.07-7.89,8.62c-2.96,2.59-6.28,5.84-9.86,6.47
		c-15.33,2.72-30.8,4.66-46.25,6.64c-1.89,0.24-5.18-0.52-5.67-1.71c-0.73-1.76-0.3-5.02,0.98-6.4c3.55-3.84,7.75-7.1,11.78-10.49
		c13.09-11.06,26.54-21.72,39.23-33.22c10.24-9.28,17-21.04,21.61-34.22c3.69-10.55,8.78-20.6,12.97-30.98
		c8.52-21.08,9.4-42.85,1.2-63.78c-9.2-23.49-5.55-44.97,4.58-66.78c3.26-7.02,4.61-14.97,6.48-22.59
		c1.91-7.75-0.35-15.03-2.4-22.57c-2.15-7.92-2.96-16.36-3.21-24.6c-0.23-7.67,4.13-12.5,11.03-14.58
		c6.39-1.92,12.32-0.18,16.45,6.44c3.56,5.7,5.86,12.21,8.49,18.45c1.09,2.58,1.62,5.4,4.21,8.9c2.85-5.09,6-10.04,8.5-15.29
		c7.69-16.1,6.57-18.81-10.71-22.88c-10.03-2.36-20.29-3.94-30.54-5.06c-10.89-1.18-20.49,8.49-22.79,21.38
		c-2.52,14.16-0.88,28.07,1.99,41.9c3.32,15.97-0.3,30-10.55,42.56c-6.44,7.9-13.88,12.18-24.67,10.14
		c-3.85-0.73-9.29,0.19-12.2,2.57c-6.72,5.47-12.54,12.1-18.32,18.62c-3.47,3.92-5.88,8.77-9.32,12.72
		c-1.54,1.77-5.12,3.86-6.59,3.2c-4.99-2.26-7.29,0.99-10.01,3.61c-19.01,18.25-39.31,35.36-53.08,58.34
		c-3.02,5.04-5.98,10.51-7.2,16.17c-4.17,19.26-14.39,35.34-25.71,50.79c-19.01,25.94-39.74,50.45-63.14,72.58
		c-3.49,3.3-7.24,6.47-11.32,8.99c-4.77,2.95-10.02,3.57-14.66-0.62c-4.71-4.27-5.2-9.8-2.73-15.1c1.8-3.87,4.64-7.51,7.76-10.47
		c7-6.66,14.2-13.17,21.8-19.13c14.8-11.61,26.04-26.16,35.32-42.25c7.4-12.83,17.29-24.52,20-41.88
		c-5.04,4.63-8.96,8.09-12.72,11.72c-3.95,3.82-8.01,7.58-11.53,11.78c-14.82,17.7-29.35,35.64-44.22,53.29
		c-4.51,5.35-9.4,10.54-14.82,14.94c-9.03,7.33-17.01,4.42-20.2-7.09c-5.01-18.06,0.49-33.77,11.49-48.07
		c1.07-1.39,2.19-2.82,3.56-3.88c17.25-13.37,24.69-32.19,30.99-52.3c4.41-14.09,11.05-27.7,18.33-40.59
		c6.42-11.37,5.81-23.04,4.21-34.59c-2.18-15.68,1.01-28.66,13.02-39.32c3.93-3.49,7.22-7.7,10.92-11.46
		c3.46-3.52,4.15-7.17,0.87-11.08c-8.98-10.72-3.54-17.65,5.54-22.79c4.58-2.59,9.08-5.39,13.34-8.47
		c9.85-7.12,15.51-16.38,15.11-29.07c-0.35-11.18,3.79-21.12,10.52-29.92c5.34-6.99,10.96-13.75,16.39-20.66
		c1.35-1.72,3.09-3.46,3.59-5.45c0.92-3.64,1.05-7.47,1.51-11.23c-3.85-0.37-8.47-2.27-11.38-0.79c-5.47,2.77-10.38,7.08-14.7,11.54
		c-3.29,3.4-5.59,7.89-7.86,12.15c-9.17,17.23-22.44,31.36-34.3,46.61c-15.41,19.82-29.06,41.01-43.47,61.61
		c0.55,0.41,1.09,0.82,1.64,1.22c7.62-6.11,15.23-12.24,22.88-18.31c1.89-1.5,3.75-3.4,5.94-4.04c2.47-0.73,5.88-1.18,7.78,0.01
		c1.59,0.99,2.8,4.99,2.09,6.87c-5.03,13.23-8.68,27.62-26.2,30.65c-5.11,0.88-9.75,4.45-14.61,6.78c0.14,0.6,0.29,1.19,0.43,1.79
		c1.38,0,2.93-0.41,4.11,0.08c3.44,1.41,8.42,2.4,9.63,5.02c1.28,2.77-0.16,7.81-2.08,10.79c-1.97,3.07-5.64,5.98-9.12,6.91
		c-4.89,1.3-5.79,4.31-6.62,8.29c-2.03,9.61-4.63,19.11-6.27,28.77c-0.82,4.85-1.16,10.3,0.21,14.91
		c4.15,14.04,0.63,25.13-8.54,36.49c-8.73,10.82-14.77,23.8-22.08,35.78c-2.74,4.5-5.43,9.08-8.71,13.17
		c-1.82,2.26-4.58,4.28-7.32,5.2c-12.23,4.12-18.74,12.37-18.67,25.36c0.04,7.01,1.19,14.02,1.38,21.04
		c0.51,19.4-8.69,29.66-27.68,32.84c-5.07,0.85-10.16,3.95-14.35,7.17c-6.08,4.68-11.84,5.67-18.95,2.73
		c-12.93-5.34-23.73-13.53-32.38-24.25c-11.63-14.4-10.86-30.86-6.4-47.67c4.11-15.48,9.65-30.8,11.59-46.56
		c1.66-13.48-1.21-27.47-1.47-41.24c-0.31-16.25,0.26-32.51-0.05-48.76c-0.08-4.4-1.16-9.17-3.17-13.05
		c-3.08-5.94-8.82-5.93-12.44-0.23c-2.2,3.47-3.86,7.46-4.91,11.44c-3.3,12.55-12.4,20.39-23.07,28.4
		c5.97,4.12,11.52,7.6,16.64,11.62c2.73,2.14,4.73,5.21,7.05,7.86c-2.52,2.13-5.02,4.29-7.56,6.39c-0.99,0.82-2.07,1.51-3.62,2.63
		c1.44,1.76,2.69,3.18,3.82,4.68c3.05,4.02,6.43,7.85,8.99,12.16c7.78,13.08,4.41,23.72-10.31,27.3c-9.95,2.42-20.8,1.78-31.2,1.35
		c-5.36-0.22-7.46-4.94-6.3-10.33c1.29-6.01,3.14-11.92,4.03-17.98c1.63-11.05,1.07-21.89-4.56-32.01
		c-7.79-13.99-3.78-26.24,5.98-37.47c9.08-10.45,18.23-20.84,27.35-31.25c5.96-6.8,8.86-14.45,7.25-23.67
		c-2.28-13.06-0.27-15.8,10.59-17.9c3.77-6.58,6.86-11.98,9.63-16.83c-6.04-6.69-13.33-13.59-19.22-21.53
		c-8.53-11.52-5.92-22.59,6.98-28.89c8.58-4.2,17.88-7.52,27.23-9.42c11.05-2.25,17.58-7.22,19.58-18.76
		c1.97-11.38,7.69-20.66,19.49-24.49c3.94-1.28,8.1-2.06,12.22-2.6c9.2-1.2,15.52-5.65,18.09-14.84
		c2.41-8.59,7.96-14.77,14.54-20.65c7.82-6.97,14.59-15.11,21.95-22.61c6.6-6.72,12.86-13.94,20.24-19.69
		c9.77-7.62,15.18-5.35,19.1,6.48c0.25,0.75,1.07,1.31,1.6,2c-0.17,7.24-0.94,14.51-0.19,21.62c0.41,3.85,2.74,8.04,5.39,11.03
		c9.07,10.21,10.07,17.05,1.86,28.33c-4.89,6.72-10.87,12.66-16.4,18.91c-6.35,7.18-12.75,14.33-19.12,21.49
		c0.36,0.7,0.73,1.39,1.09,2.09c3.72-1.08,7.49-2.04,11.16-3.27c11.61-3.9,23.06-8.36,34.84-11.65c5.62-1.57,12.56-1.68,16.05,4.38
		c3.35,5.81-1.18,10.61-4.79,14.6c-7.37,8.14-15.22,15.85-22.89,23.72c-4.88,5.01-8.57,10.65-9.38,18.49
		c8.9-2.93,17.11-6.82,25.39-10.55c13.7-6.19,21.15-17.2,24.95-31.33c2.71-10.07,0.01-17.98-7.95-24.62
		c-3.67-3.06-7.29-6.58-9.7-10.62c-1.78-2.99-3.22-8.08-1.82-10.55c1.47-2.6,6.37-3.95,9.97-4.49c3.79-0.56,9.13-0.09,9.12,5.06
		c-0.01,5.9-5.2,4.44-9.07,4.12c-0.33-0.03-0.69,0.36-1.86,1.01c9.95,11.66,25.4,20.65,20.27,40c2.47-2.39,4.47-4.69,6.11-7.21
		c7.68-11.78,14.93-23.86,22.98-35.39c7.84-11.22,18.34-17.49,32.78-14.58c7.06,1.42,11.49,5.84,10.13,12.85
		c-1.18,6.05-3.82,12.1-7.05,17.39c-3.98,6.53-9.05,12.45-14,18.32c-8.17,9.69-12.09,20.73-11.95,33.36
		c0.13,12.07-4.99,21.77-14.34,29.06c-5.87,4.57-12.24,8.53-18.56,12.5c-2.93,1.85-4.45,3.66-1.83,6.71
		c8.4,9.75,5.03,18.64-3.42,27.85c-20.22,22.04-19.59,15.62-18.35,48.17c0.52,13.61-2.36,25.73-9.67,37.54
		c-6.17,9.96-10.9,21.08-14.57,32.25c-6.9,21.04-16.16,40.2-33.29,55.03c-8.19,7.09-12.86,16.72-14.85,27.36
		c-1.42,7.65-0.68,15.16,4.38,23.44c4.77-4.24,9.43-7.5,12.99-11.71c10.92-12.92,20.84-26.73,32.23-39.22
		c15.23-16.7,31.31-32.63,47.44-48.47c2.06-2.03,6.54-1.59,9.9-2.3c0.31,3.43,1.44,7.02,0.78,10.26
		c-4.07,20.12-15.76,36.53-26.79,53.18c-9.61,14.52-20.14,28.27-33.88,39.32c-7.88,6.33-15.4,13.12-22.85,19.96
		c-2.36,2.17-4.35,4.99-5.75,7.88c-0.66,1.35-0.03,3.98,0.99,5.25c0.64,0.8,3.39,0.69,4.67,0.01c2.68-1.42,5.2-3.28,7.45-5.33
		c26.5-24.13,48.21-52.36,69.03-81.3c8.78-12.21,14.9-25.67,18.93-40.34c2.28-8.29,6.57-16.41,11.52-23.53
		c16.94-24.37,39.11-43.93,60.95-63.71c1.69-1.53,4.5-3.18,6.42-2.82c4.49,0.86,5.47-2.34,7.53-4.73
		c6.43-7.43,12.57-15.2,19.71-21.88c5.3-4.95,12.24-8.57,19.92-6.63c8.78,2.22,14.12-1.84,19.27-7.96
		c9.68-11.51,10.37-24.72,8.09-38.64c-2.33-14.24-2.44-28.49,0.65-42.6c3.14-14.34,14.65-25.44,27.39-24.13
		c15.86,1.63,31.59,5.06,47.2,8.5c6.63,1.46,11.12,8.07,9.72,13.9c-3.22,13.35-8.49,25.99-18.91,35.49
		c-5.88,5.36-11.48,3.86-14.73-3.27c-1.36-2.98-2.14-6.23-3.34-9.29c-1.93-4.89-3.7-9.89-6.15-14.52c-0.93-1.76-3.54-2.62-5.39-3.89
		c-1.28,2.02-3.74,4.12-3.62,6.06c0.44,7.38,0.62,15.07,2.88,21.99c5.48,16.79,4.86,32.98-2.77,48.69
		c-10.54,21.71-14.95,43.54-3.91,66.46c1.82,3.77,2.9,7.9,4.3,11.88c-0.22,2.62-0.77,5.24-0.59,7.8c1.14,16.57-1.57,32.4-8.75,47.41
		c-4.27,8.91-9.49,17.48-12.72,26.75c-6.76,19.42-19.14,34.4-34.59,47.23c-11.42,9.49-23.04,18.72-35.05,28.45
		c12.52-1.67,24.48-3.18,36.4-4.92c2.04-0.3,4.76-0.97,5.77-2.43c8.18-11.85,21.54-17.12,32.07-25.93c2.51-2.1,3.98-5.38,6.31-7.74
		c2.3-2.32,4.81-5.15,7.73-5.96c3.16-0.87,6.9,0.29,10.38,0.65c7.91,0.81,15.84,1.84,24.22-1.86c-3.55-4.18-6.32-7.57-9.24-10.83
		c-5.01-5.6-6.69-12.14-6.11-19.52c0.46-5.79,2.71-9.83,9.07-9.94c11.17-0.19,22.36-0.41,33.53-0.16
		c5.93,0.13,11.84,1.22,18.26,1.93c-6.34-16.24-8.83-17.69-24.3-14.97c-0.65,0.11-1.29,0.38-1.94,0.39
		c-10.93,0.22-21.9,1.13-32.76,0.37c-7.69-0.53-10.03-7.28-5.27-13.48c2.63-3.42,6.08-6.3,9.5-9c3.7-2.93,7.79-5.36,11.72-8.01
		c-2.77-0.35-5.09,0.13-7.38,0.69c-13.63,3.36-19.92-0.13-23.58-13.43c-1.21-4.41-1.8-8.99-2.68-13.49
		c-1.97-10.6,1.98-19.19,9.56-18.73c8.01,0.49,13.75-2.71,19.68-7.2c4.15-3.14,8.9-5.76,13.75-7.68c17.75-7.04,35.66-13.7,53.5-20.5
		c1.53-0.59,3.04-1.24,5.48-2.24c-5.2-4.08-9.63-7.64-14.13-11.07c-14.6-11.14-31.33-9.68-43.5,4.17c-3.74,4.25-6.06,9.75-9.8,14
		c-6.61,7.52-13.48,14.9-21,21.47c-2.08,1.81-7.62,1.82-10.14,0.29c-2.02-1.22-2.38-6-2.56-9.25c-0.4-6.97,0.52-14.08-0.41-20.95
		c-1.8-13.27,1.67-21.69,13.76-27.58c12.18-5.93,21.77-14.66,30.26-24.97c5.3-6.44,10.98-12.59,16.65-18.72
		c6.18-6.68,14.08-10.32,22.81-12.45c10.55-2.58,20.18-1.44,27.91,6.92c10.96,11.85,18.51,25.27,21.25,41.58
		c2.98,17.72,6.33,35.5,11.29,52.75c5.14,17.88,13.22,34.92,18.57,52.75c10.8,36,9.64,72.93,5.67,109.75
		c-2.39,22.13-13.92,38.49-34.68,47.73c-1.04,0.46-1.86,1.43-3.94,3.07c5.7,0.41,10.15,0.14,14.27,1.2
		c4.18,1.07,8.01,3.46,13.24,5.84c6.37-10.97,15.81-21.73,16.52-36.54c0.72-15.15,1.8-30.37,1.05-45.47
		c-0.78-15.72-0.11-31.12,2.58-46.59c1.94-11.18,1.29-22.23-3.88-32.82c-6.2-12.69-10.33-25.98-11.61-40.26
		c-1.9-21.15-7.29-41.29-16.92-60.54c-4.8-9.6-6.89-20.79-8.89-31.5c-2.78-14.88-8.1-27.52-21.34-36.32
		c-4.7-3.12-8.41-8.27-11.48-13.17c-3.13-5-2.21-10.34,1.48-15.37c8.07-11,7.07-17.19-4.43-25.08
		c-7.79-5.34-11.48-12.76-14.25-21.41c-1.58-4.93-4.33-10.15-8.08-13.58c-6.34-5.8-10.22-12.39-12.08-20.61
		c-0.76-3.35-1.91-6.88-3.84-9.66c-11.52-16.58-25.79-29.8-45.45-36.36c-6.82-2.28-12.04-6.6-16.06-12.94
		c-3.18-5.02-7.39-9.85-12.21-13.26c-10.69-7.56-20.78-15.45-27.79-26.8c-1.8-2.92-4.52-5.42-7.22-7.6
		c-4.91-3.97-9.85-3.64-14.97,0.25c-3.24,2.46-6.93,4.71-10.78,5.92c-11.67,3.68-16.9,12.07-14.25,24.14
		c0.94,4.29,2.35,8.48,3.19,12.78c2.16,11.08,0.79,21.57-6.73,30.45c-7.25,8.56-16.39,14.62-26.93,18.38
		c-4,1.43-9.13,2.56-11.02-2.21c-1.15-2.89,0.08-7.67,1.88-10.59c3.67-5.94,9.56-10.66,12.56-16.84
		c9.92-20.48,17.88-41.59,15.58-65.14c-0.55-5.64-0.2-11.43,0.31-17.1c0.19-2.08,1.83-5.5,3.16-5.68c2.07-0.27,4.63,1.43,6.6,2.82
		c1.74,1.24,2.83,3.36,4.45,4.82c5.1,4.59,8.78,4.01,9.36-2.76c0.86-10.07-0.36-20.32-0.92-30.49c-0.07-1.22-1.6-2.35-2.87-4.1
		c-2.03,3.41-3.72,6.18-5.35,8.99c-2.1,3.63-4.24,8.51-9.11,6.75c-3.61-1.31-6.82-4.92-9.14-8.25c-2.96-4.26-4.8-9.29-7.21-13.95
		c-3.8-7.34-9.08-14.26-11.18-22.05c-3.14-11.66-10.15-15.51-21.26-16.65c-16.72-1.71-33.47-2.45-49.89-7.98
		c-11.3-3.81-24.11-1.66-35.34,3.79c-17.17,8.32-34.1,17.15-51.2,25.63c-4.63,2.3-7.14,5.57-6.96,10.85
		c0.86,24.05,0.72,48.18,9.12,71.32c4.86,13.37,8.97,27.01,13.4,40.54c1.8,5.5,3.58,11.01,5.51,16.95c1.25-0.81,3.21-2.08,5.17-3.34
		c10.15-6.52,19.86-13.91,30.55-19.36c15.21-7.75,30.47-7.18,44.61,3.7c6.08,4.68,12.53,8.87,18.73,13.22
		c5.04-3.4,6.65-14.35,2.18-15.63c-6.98-2-8.44-6.58-9.31-12.48c-0.24-1.66-1.28-3.27-2.19-4.75c-5.27-8.51-10.13-8.66-18.12-3.04
		c-6.26,4.4-13.57,8.31-20.94,9.78c-4.84,0.96-10.63-2.8-17.06-4.78c-5.3,3.45-7.83,12.67-16.36,15.01c1.41-3.68,3.57-6.6,5.76-9.49
		c3.97-5.23,7.79-10.59,12.09-15.54c1.06-1.22,5.29-1.67,5.39-1.43c2.93,7.52,9.18,4.08,14,4.09c8.32,0.03,8.63-0.69,7.67-8.79
		c-1.13-9.6-2.53-19.19-3.2-28.82c-0.66-9.4,2.49-12.15,11.72-12.63c5.62-0.29,11.18-1.49,16.78-2.21
		c3.69-0.47,7.48-1.43,11.07-0.98c2.02,0.25,3.74,2.92,5.6,4.49c-1.52,1.64-2.77,3.77-4.63,4.79c-1.81,0.99-4.23,1.04-6.4,1.14
		c-3.71,0.17-7.44,0.05-11.16,0.05c0.1,0.92,0.2,1.84,0.3,2.75c9.8-1.55,19.7-2.67,29.33-4.93c2.65-0.62,4.49-4.67,6.7-7.15
		c-2.99-1.77-5.8-4.1-9.02-5.15c-2.57-0.84-5.69-0.45-8.5-0.08c-15.45,2.06-30.87,4.36-46.33,6.4c-3.71,0.49-4.37,2.31-4.51,5.75
		c-0.37,9.36-7.77,14.04-16.53,10.82c-2.26-0.83-4.41-2.22-6.73-2.6c-1.58-0.26-3.9,0.25-4.99,1.33
		c-7.56,7.51-16.74,9.66-26.66,7.36c-3.26-0.75-7.77-4.19-8.22-6.96c-0.58-3.6,1.18-9.03,3.9-11.48
		c12.39-11.15,29.62-12.1,44.17-3.55c3.84,2.26,7.03,4.51,3.96,10.04c1.95-2,3.3-3.88,3.55-5.9c1.03-8.53,2.48-10.57,11.05-11.95
		c16.04-2.58,32.09-5.39,48.24-6.93c5.96-0.57,12.79,1.06,18.25,3.69c8.1,3.9,8.82,12.68,1.89,18.37c-3.75,3.08-8.57,5.52-13.28,6.6
		c-6.8,1.56-13.93,1.93-20.95,2.21c-5.51,0.22-10.96-0.26-13.85-6.6c-0.65-1.43-3.96-1.66-7.86-3.12
		c2.1,12.91,3.84,23.63,5.59,34.36c12.54-2.04,21.89,2.74,27.31,13.77c1.06,2.15,1.54,4.59,2.61,6.73c0.78,1.55,1.82,3.27,3.23,4.15
		c4.52,2.84,9.74,17.67,7.63,22.62c-0.34,0.79-0.74,1.74-1.4,2.19c-4.08,2.75-4.92,6.13-3.26,10.81c0.5,1.41-1.19,5.09-2.15,5.2
		c-1.9,0.2-5.04-0.79-5.84-2.28c-7.26-13.54-20.69-19.31-33.16-25.7c-4.89-2.5-12.27-2.28-17.88-0.82
		c-19.05,4.94-33.26,18.25-48.07,30.23c-1.62,1.31-2.27,5.47-1.54,7.71c2.07,6.36,5.1,12.42,8.6,20.58
		c0.76-3.91,0.87-6.01,1.61-7.84c0.68-1.69,2.33-4.56,3.07-4.41c7.45,1.45,8.93-5.01,12.14-8.9c5.44-6.58,10.01-13.98,15.93-20.06
		c5.65-5.8,12.02-4.37,15.32,2.97c1.89,4.2,3.85,5.06,8.01,3.55c6.78-2.47,12.52-1.01,16.47,5.55c0.78,1.29,1.8,2.71,3.07,3.39
		c9.29,4.97,11.25,13.39,11.19,22.89c-0.01,1.18,0.43,2.37,0.7,3.76c7.86-2.09,9.7-7.86,11.27-14.35c0.71-2.96,3.38-5.45,5.16-8.15
		c2.61,2.05,6.64,3.62,7.53,6.25c1.99,5.92,2.94,12.32,3.32,18.59c0.39,6.34-3.42,10.69-9.12,13.25c-7.73,3.48-15,1.28-22.28-1.73
		c-2.34-0.97-5.17-2.16-7.44-1.67c-8.54,1.84-17.21,3.62-25.29,6.81c-5.94,2.34-11.51,3.34-17.17,0.98
		c-9.29-3.87-18.31-8.37-28.08-12.9c-0.37,0.35-1.83,2.05-3.6,3.3c-4.93,3.48-11.76,2.54-14.22-2.82
		C401.42,462.66,397.87,452.52,393.93,442.55z M205.94,749.78c-5.56-3.89-11.38-7.43-16.56-11.74c-6.5-5.41-5.98-10.52,0.87-15.46
		c8.4-6.05,15.02-13.33,18-23.63c1.26-4.38,3.22-8.72,5.69-12.55c7.72-11.97,22.25-12.16,29.6,0c2.9,4.79,4.17,10.95,4.79,16.64
		c0.71,6.5-0.48,13.18-0.22,19.76c0.74,18.87,2.16,37.72,2.64,56.59c0.53,20.77-5.96,40.24-12.13,59.75
		c-2.1,6.65-3.86,13.55-4.59,20.46c-2.35,22.22,17.2,38.19,34.75,46.53c4.68,2.22,8.21,1.28,12.55-1.88
		c5.33-3.88,11.62-7.22,17.98-8.77c14.19-3.45,19.76-9.49,19.74-24.15c-0.02-9.43-0.83-18.93,0.01-28.28
		c0.99-11.1,7.52-19.87,17.61-23.66c7.81-2.93,11.47-8.11,14.64-14.66c7.85-16.22,15.43-32.55,27.9-46.04
		c4.8-5.19,5.71-11.81,3.34-18.57c-3.61-10.29-1.59-20,1.26-30.24c3.3-11.86,9.23-23.92,2.84-36.82c-0.94-1.9-0.67-5.03,0.22-7.08
		c2.16-4.93,5.02-9.55,7.42-13.98c-6.83-0.31-8.89-3.47-5.07-10.18c9.46-16.6,19.27-33.01,28.93-49.5c0.76-1.3,1.41-2.65,2.84-5.37
		c-3.85,2.14-6.03,3.67-8.45,4.63c-6.29,2.5-12.52,5.55-19.08,6.9c-8.31,1.72-12.75-3.43-9.38-11.11
		c3.03-6.9,7.38-13.46,12.24-19.26c6.33-7.56,13.79-14.16,20.62-21.32c1.65-1.73,2.71-4.03,4.05-6.06c-0.33-0.53-0.67-1.05-1-1.58
		c-5.55,0.96-11.33,1.24-16.6,3.02c-9.96,3.37-19.59,7.72-29.44,11.43c-5.83,2.2-11.65,1.65-15.45-3.66
		c-3.73-5.22-0.85-10.09,2.69-14.31c9.46-11.29,19.15-22.38,28.44-33.8c2.71-3.33,4.74-7.36,6.37-11.36
		c0.59-1.45-0.29-4.51-1.55-5.53c-9.05-7.28-11.84-17.07-12.02-28.04c-0.08-4.68-0.01-9.37-0.01-14.05
		c-1.13-0.59-2.26-1.18-3.39-1.78c-4.69,5.45-9.19,11.08-14.1,16.32c-9.73,10.38-19.76,20.47-29.48,30.85
		c-2.65,2.83-5.56,5.96-6.76,9.49c-4.99,14.72-14.85,22.98-30.29,24.49c-12.65,1.24-20.02,8.19-22.25,20.53
		c-2.52,13.9-11.16,20.86-24.54,24.08c-9.3,2.24-18.34,5.95-27.12,9.86c-6.3,2.81-7.25,6.78-2.81,12.13
		c5.54,6.67,11.63,13.09,18.37,18.5c7.49,6.01,8.6,9.32,2.71,16.68c-5.67,7.09-5.72,9.5,0.34,16.5c2.28,2.64,4.94,5.06,7.78,7.07
		c6.64,4.68,13.75,8.72,20.21,13.62c20.31,15.4,14.31,42.12,1.83,54.7c-1.9,1.91-6.18,2.7-8.93,2.1c-1.87-0.41-4.1-4.06-4.31-6.44
		c-2.02-22.48-13.31-41.09-24.67-59.6c-2.66-4.34-6.8-7.93-13.24-7.11c0,1.42-0.24,2.55,0.04,3.54
		c4.07,14.91-2.02,26.45-11.77,37.05c-8.62,9.37-16.83,19.13-25.22,28.72c-6.79,7.76-9.37,16.09-4.45,25.99
		c5.24,10.55,6.54,21.82,4.67,33.42c-1.27,7.92-2.72,15.82-4.21,24.41c10.25,0.64,19.82,1.54,29.1-2.36c5.29-2.22,8-5.88,4.94-11.35
		c-2.76-4.94-5.91-9.79-9.64-14.02C196.95,760.91,196.83,758.26,205.94,749.78z M580.49,299.86c2.82-6.11,5.44-12.57,8.71-18.68
		c4.18-7.8,5.36-15.7,2.49-24.12c-6.26-18.37-6.69-37.55-7.38-56.62c-0.58-16.09-5.13-30.99-11.08-45.75
		c-3.49-8.67-7.12-17.62-8.37-26.76c-1.54-11.26-6.81-17.2-17.54-19.86c-28.95-7.19-58.43-5.12-87.76-5.34
		c-9.52-0.07-18.8,2.67-25.63,10.19c-6.15,6.79-14.06,9.99-22.51,12.93c-13.62,4.75-27.14,9.96-40.26,15.96
		c-11.89,5.44-17.99,15.34-18.94,28.7c-1.12,15.81-3.99,31.32-10.15,46.12c-1.65,3.96-2.31,8.46-2.71,12.78
		c-0.93,10.24,5.14,17.95,10.43,25.69c7.7,11.28,10.99,23.31,8.3,36.83c-0.6,3.01-1.2,6.09-1.23,9.14
		c-0.09,8.36-0.58,16.86,4.47,25.13c6.93-10.38,11.89-20.07,6.82-32.04c-1.88-4.43-2.94-9.2-4.6-13.73
		c-4.64-12.68,0.82-21.37,13.99-23.73c10.27-1.84,20.64-4.07,30.36-7.74c9.59-3.62,18.47-9.14,27.55-14.05
		c9.04-4.89,18.54-5.95,28.69-5.36c8.22,0.48,16.53-0.69,24.8-0.86c5.2-0.11,10.61-0.58,15.59,0.58c13.66,3.17,27.18,7,40.7,10.77
		c11.88,3.31,21.11,9.87,24.77,22.28C573.65,274.67,576.94,287.1,580.49,299.86z M374,283.45c5.23-3.48,9.97-7.26,15.23-10.02
		c13.97-7.32,28.42-13.75,42.2-21.4c13.46-7.47,27.74-9.94,42.6-8.31c11.92,1.3,23.63,4.43,35.49,6.32
		c8.01,1.28,16.13,1.95,24.22,2.65c12.44,1.08,19.29,7.95,22.22,19.85c2.24,9.07,5.39,17.89,14.27,23.49
		c-1.86-9.01-4.84-17.69-6.93-26.58c-2.95-12.59-10.89-19.45-23.02-22.59c-13.16-3.41-26.17-7.4-39.34-10.76
		c-3.03-0.77-6.47-0.19-9.68,0.11c-7.62,0.72-15.34,2.93-22.79,2.2c-12.08-1.19-22.95,0.74-33.74,6.17
		c-18.19,9.16-36.04,19.35-57.15,20.75c-5.92,0.39-7.38,4.95-6.24,10.17C372,278.46,373.27,281.29,374,283.45z M458.21,427.89
		c-1.06,0.58-1.79,0.76-2.16,1.22c-8.03,9.88-16.1,19.74-23.91,29.78c-0.76,0.98-0.45,3.42,0.21,4.76
		c3.81,7.67,23.34,14.32,31.59,11.6c8.49-2.8,17.3-4.64,25.91-7.1c1.61-0.46,3.85-1.6,4.26-2.9c2.03-6.55-7.53-24.61-13.97-26.85
		c-0.96-0.34-2.18-0.09-3.25,0.05C463.57,440.13,463.57,440.13,458.21,427.89z M269.38,703.47c10.6-15.81,4.27-32.19-15.32-39.3
		C259.03,676.95,264.25,690.32,269.38,703.47z M555.55,440.79c17.1-6.29,26.22-25.14,18.52-38.51
		C567.97,414.96,561.58,428.26,555.55,440.79z M429.67,624.16c-8.23,6.72-15.43,12.6-22.62,18.48
		C417.36,640.52,427.87,638.66,429.67,624.16z M418.66,333.89c-4.04,2.02-7.56,3.78-11.08,5.53c0.21,0.75,0.42,1.51,0.62,2.26
		c4.72-0.46,9.45-0.91,15.29-1.48C421.38,337.45,420.25,335.96,418.66,333.89z"/>
	<path class="st0" d="M667.23,727.51c-1.42-3.96-2.5-8.09-4.32-11.86c-11.04-22.92-6.64-44.75,3.91-66.46
		c7.63-15.71,8.26-31.9,2.77-48.69c-2.26-6.92-2.45-14.61-2.88-21.99c-0.12-1.94,2.34-4.04,3.62-6.06c1.85,1.27,4.46,2.13,5.39,3.89
		c2.45,4.63,4.22,9.62,6.15,14.52c1.21,3.06,1.99,6.3,3.34,9.29c3.25,7.14,8.85,8.63,14.73,3.27c10.43-9.5,15.69-22.14,18.91-35.49
		c1.41-5.83-3.09-12.44-9.72-13.9c-15.61-3.43-31.33-6.87-47.2-8.5c-12.74-1.31-24.25,9.79-27.39,24.13
		c-3.09,14.11-2.98,28.36-0.65,42.6c2.28,13.92,1.6,27.13-8.09,38.64c-5.15,6.12-10.49,10.18-19.27,7.96
		c-7.68-1.94-14.63,1.68-19.92,6.63c-7.14,6.68-13.28,14.45-19.71,21.88c-2.07,2.39-3.04,5.59-7.53,4.73
		c-1.92-0.37-4.73,1.29-6.42,2.82c-21.84,19.78-44,39.34-60.95,63.71c-4.95,7.11-9.24,15.23-11.52,23.53
		c-4.03,14.67-10.15,28.13-18.93,40.34c-20.82,28.94-42.53,57.18-69.03,81.3c-2.25,2.05-4.78,3.91-7.45,5.33
		c-1.28,0.68-4.03,0.79-4.67-0.01c-1.02-1.27-1.65-3.9-0.99-5.25c1.4-2.89,3.39-5.7,5.75-7.88c7.45-6.84,14.97-13.63,22.85-19.96
		c13.74-11.05,24.27-24.8,33.88-39.32c11.03-16.65,22.72-33.06,26.79-53.18c0.65-3.23-0.48-6.83-0.78-10.26
		c-3.36,0.71-7.84,0.27-9.9,2.3c-16.12,15.85-32.21,31.78-47.44,48.47c-11.38,12.49-21.3,26.3-32.23,39.22
		c-3.55,4.21-8.22,7.47-12.99,11.71c-5.05-8.28-5.8-15.79-4.38-23.44c1.98-10.64,6.66-20.28,14.85-27.36
		c17.13-14.82,26.39-33.99,33.29-55.03c3.66-11.17,8.4-22.29,14.57-32.25c7.31-11.81,10.19-23.92,9.67-37.54
		c-1.23-32.56-1.87-26.14,18.35-48.17c8.45-9.21,11.82-18.1,3.42-27.85c-2.62-3.05-1.1-4.86,1.83-6.71
		c6.31-3.97,12.68-7.93,18.56-12.5c9.35-7.28,14.48-16.99,14.34-29.06c-0.14-12.63,3.78-23.67,11.95-33.36
		c4.96-5.88,10.02-11.8,14-18.32c3.23-5.29,5.87-11.34,7.05-17.39c1.37-7.01-3.06-11.43-10.13-12.85
		c-14.44-2.91-24.95,3.36-32.78,14.58c-8.05,11.52-15.3,23.6-22.98,35.39c-1.64,2.52-3.64,4.82-6.11,7.21
		c5.13-19.35-10.32-28.34-20.27-40c1.16-0.65,1.53-1.04,1.86-1.01c3.87,0.32,9.07,1.79,9.07-4.12c0.01-5.16-5.33-5.63-9.12-5.06
		c-3.6,0.54-8.51,1.88-9.97,4.49c-1.39,2.47,0.04,7.56,1.82,10.55c2.41,4.04,6.03,7.56,9.7,10.62c7.97,6.64,10.67,14.55,7.95,24.62
		c-3.8,14.12-11.26,25.14-24.95,31.33c-8.27,3.74-16.48,7.62-25.39,10.55c0.81-7.84,4.5-13.48,9.38-18.49
		c7.67-7.88,15.52-15.58,22.89-23.72c3.61-3.99,8.14-8.79,4.79-14.6c-3.49-6.06-10.44-5.95-16.05-4.38
		c-11.78,3.29-23.23,7.76-34.84,11.65c-3.67,1.23-7.44,2.19-11.16,3.27c-0.36-0.7-0.73-1.39-1.09-2.09
		c6.38-7.16,12.77-14.3,19.12-21.49c5.53-6.25,11.51-12.19,16.4-18.91c8.21-11.28,7.2-18.12-1.86-28.33
		c-2.65-2.98-4.98-7.17-5.39-11.03c-0.75-7.11,0.02-14.38,0.19-21.62c0.03-0.03-0.06,0.06-0.03,0.02
		c3.96,9.93,7.52,20.08,11.98,29.8c2.46,5.37,9.29,6.3,14.22,2.82c1.77-1.25,3.22-2.95,3.6-3.3c9.77,4.53,18.79,9.02,28.08,12.9
		c5.66,2.36,11.23,1.36,17.17-0.98c8.08-3.19,16.76-4.97,25.29-6.81c2.27-0.49,5.1,0.71,7.44,1.67c7.28,3.01,14.55,5.21,22.28,1.73
		c5.7-2.57,9.51-6.92,9.12-13.25c-0.38-6.27-1.33-12.68-3.32-18.59c-0.88-2.63-4.92-4.2-7.53-6.25c-1.78,2.7-4.44,5.19-5.16,8.15
		c-1.57,6.49-3.41,12.26-11.27,14.35c-0.27-1.4-0.71-2.58-0.7-3.76c0.05-9.49-1.9-17.92-11.19-22.89c-1.27-0.68-2.29-2.1-3.07-3.39
		c-3.94-6.56-9.68-8.02-16.47-5.55c-4.16,1.52-6.12,0.66-8.01-3.55c-3.31-7.34-9.67-8.77-15.32-2.97
		c-5.93,6.08-10.49,13.48-15.93,20.06c-3.21,3.88-4.69,10.34-12.14,8.9c-0.74-0.14-2.38,2.72-3.07,4.41
		c-0.74,1.84-0.85,3.93-1.61,7.84c-3.5-8.17-6.52-14.22-8.6-20.58c-0.73-2.24-0.08-6.4,1.54-7.71
		c14.81-11.99,29.03-25.29,48.07-30.23c5.61-1.45,13-1.68,17.88,0.82c12.48,6.39,25.91,12.16,33.16,25.7
		c0.8,1.48,3.94,2.48,5.84,2.28c0.96-0.1,2.64-3.79,2.15-5.2c-1.66-4.68-0.82-8.06,3.26-10.81c0.66-0.45,1.07-1.39,1.4-2.19
		c2.1-4.95-3.11-19.78-7.63-22.62c-1.4-0.88-2.45-2.6-3.23-4.15c-1.07-2.14-1.55-4.58-2.61-6.73
		c-5.42-11.03-14.78-15.81-27.31-13.77c-1.75-10.73-3.49-21.45-5.59-34.36c3.91,1.46,7.21,1.69,7.86,3.12
		c2.9,6.34,8.34,6.82,13.85,6.6c7.02-0.28,14.15-0.65,20.95-2.21c4.71-1.08,9.53-3.52,13.28-6.6c6.93-5.69,6.22-14.47-1.89-18.37
		c-5.47-2.63-12.29-4.26-18.25-3.69c-16.15,1.54-32.2,4.35-48.24,6.93c-8.57,1.38-10.02,3.42-11.05,11.95
		c-0.24,2.02-1.6,3.9-3.55,5.9c3.07-5.53-0.11-7.78-3.96-10.04c-14.55-8.54-31.78-7.6-44.17,3.55c-2.72,2.45-4.49,7.88-3.9,11.48
		c0.45,2.77,4.96,6.2,8.22,6.96c9.92,2.3,19.1,0.15,26.66-7.36c1.08-1.08,3.41-1.59,4.99-1.33c2.32,0.38,4.46,1.77,6.73,2.6
		c8.76,3.22,16.16-1.46,16.53-10.82c0.14-3.44,0.8-5.26,4.51-5.75c15.46-2.04,30.88-4.34,46.33-6.4c2.81-0.37,5.93-0.77,8.5,0.08
		c3.22,1.06,6.04,3.38,9.02,5.15c-2.21,2.48-4.05,6.53-6.7,7.15c-9.63,2.26-19.53,3.38-29.33,4.93c-0.1-0.92-0.2-1.84-0.3-2.75
		c3.72,0,7.45,0.12,11.16-0.05c2.17-0.1,4.59-0.15,6.4-1.14c1.86-1.02,3.11-3.14,4.63-4.79c-1.86-1.58-3.57-4.24-5.6-4.49
		c-3.6-0.45-7.38,0.51-11.07,0.98c-5.6,0.72-11.16,1.92-16.78,2.21c-9.23,0.48-12.38,3.23-11.72,12.63
		c0.67,9.64,2.07,19.22,3.2,28.82c0.96,8.1,0.64,8.82-7.67,8.79c-4.82-0.02-11.07,3.43-14-4.09c-0.09-0.24-4.33,0.21-5.39,1.43
		c-4.3,4.95-8.12,10.31-12.09,15.54c-2.2,2.89-4.35,5.81-5.76,9.49c8.53-2.34,11.06-11.56,16.36-15.01
		c6.43,1.97,12.22,5.74,17.06,4.78c7.37-1.47,14.68-5.37,20.94-9.78c7.99-5.63,12.85-5.47,18.12,3.04c0.92,1.48,1.95,3.09,2.19,4.75
		c0.86,5.9,2.32,10.48,9.31,12.48c4.47,1.28,2.86,12.23-2.18,15.63c-6.19-4.35-12.65-8.55-18.73-13.22
		c-14.14-10.88-29.4-11.45-44.61-3.7c-10.69,5.45-20.4,12.84-30.55,19.36c-1.97,1.26-3.92,2.54-5.17,3.34
		c-1.93-5.94-3.71-11.45-5.51-16.95c-4.44-13.52-8.54-27.17-13.4-40.54c-8.41-23.14-8.26-47.27-9.12-71.32
		c-0.19-5.28,2.33-8.56,6.96-10.85c17.1-8.48,34.03-17.31,51.2-25.63c11.24-5.45,24.04-7.6,35.34-3.79
		c16.42,5.53,33.16,6.27,49.89,7.98c11.11,1.14,18.13,4.99,21.26,16.65c2.1,7.79,7.38,14.71,11.18,22.05
		c2.41,4.65,4.25,9.69,7.21,13.95c2.32,3.33,5.54,6.94,9.14,8.25c4.87,1.76,7.01-3.12,9.11-6.75c1.63-2.81,3.32-5.59,5.35-8.99
		c1.27,1.75,2.8,2.88,2.87,4.1c0.57,10.16,1.78,20.42,0.92,30.49c-0.58,6.77-4.26,7.35-9.36,2.76c-1.62-1.46-2.71-3.58-4.45-4.82
		c-1.97-1.4-4.53-3.09-6.6-2.82c-1.32,0.17-2.97,3.59-3.16,5.68c-0.51,5.67-0.87,11.45-0.31,17.1c2.31,23.55-5.66,44.66-15.58,65.14
		c-2.99,6.18-8.89,10.89-12.56,16.84c-1.8,2.92-3.03,7.7-1.88,10.59c1.89,4.77,7.02,3.64,11.02,2.21
		c10.55-3.77,19.69-9.82,26.93-18.38c7.52-8.89,8.88-19.37,6.73-30.45c-0.84-4.3-2.24-8.49-3.19-12.78
		c-2.65-12.07,2.58-20.46,14.25-24.14c3.85-1.21,7.54-3.46,10.78-5.92c5.13-3.89,10.06-4.22,14.97-0.25c2.7,2.18,5.42,4.69,7.22,7.6
		c7.01,11.35,17.1,19.23,27.79,26.8c4.82,3.41,9.04,8.24,12.21,13.26c4.01,6.35,9.23,10.67,16.06,12.94
		c19.66,6.56,33.92,19.79,45.45,36.36c1.93,2.78,3.09,6.31,3.84,9.66c1.86,8.22,5.74,14.81,12.08,20.61
		c3.75,3.43,6.5,8.65,8.08,13.58c2.77,8.65,6.47,16.07,14.25,21.41c11.51,7.89,12.51,14.08,4.43,25.08
		c-3.69,5.03-4.61,10.37-1.48,15.37c3.07,4.9,6.78,10.05,11.48,13.17c13.24,8.79,18.56,21.44,21.34,36.32
		c2,10.71,4.09,21.9,8.89,31.5c9.63,19.25,15.03,39.4,16.92,60.54c1.28,14.28,5.42,27.57,11.61,40.26
		c5.18,10.6,5.83,21.64,3.88,32.82c-2.69,15.47-3.36,30.87-2.58,46.59c0.75,15.1-0.32,30.32-1.05,45.47
		c-0.71,14.81-10.15,25.57-16.52,36.54c-5.22-2.37-9.06-4.76-13.24-5.84c-4.12-1.06-8.57-0.79-14.27-1.2
		c2.08-1.64,2.9-2.61,3.94-3.07c20.76-9.24,32.29-25.6,34.68-47.73c3.97-36.82,5.13-73.75-5.67-109.75
		c-5.35-17.84-13.43-34.87-18.57-52.75c-4.96-17.25-8.31-35.02-11.29-52.75c-2.75-16.31-10.3-29.73-21.25-41.58
		c-7.73-8.36-17.36-9.5-27.91-6.92c-8.73,2.14-16.63,5.77-22.81,12.45c-5.67,6.13-11.35,12.27-16.65,18.72
		c-8.49,10.31-18.08,19.04-30.26,24.97c-12.09,5.89-15.56,14.31-13.76,27.58c0.93,6.87,0.01,13.98,0.41,20.95
		c0.18,3.25,0.55,8.02,2.56,9.25c2.52,1.53,8.06,1.52,10.14-0.29c7.52-6.57,14.38-13.96,21-21.47c3.74-4.25,6.06-9.75,9.8-14
		c12.17-13.85,28.9-15.3,43.5-4.17c4.51,3.44,8.93,6.99,14.13,11.07c-2.44,1-3.95,1.65-5.48,2.24c-17.84,6.81-35.75,13.46-53.5,20.5
		c-4.85,1.92-9.59,4.54-13.75,7.68c-5.93,4.49-11.68,7.69-19.68,7.2c-7.58-0.46-11.53,8.13-9.56,18.73L667.23,727.51z"/>
	<path class="st0" d="M205.94,749.78c-9.11,8.49-8.99,11.14-0.73,20.5c3.73,4.23,6.88,9.08,9.64,14.02
		c3.06,5.48,0.35,9.13-4.94,11.35c-9.28,3.9-18.85,3-29.1,2.36c1.49-8.59,2.93-16.48,4.21-24.41c1.87-11.6,0.57-22.87-4.67-33.42
		c-4.92-9.9-2.34-18.24,4.45-25.99c8.39-9.58,16.6-19.34,25.22-28.72c9.75-10.6,15.84-22.14,11.77-37.05
		c-0.27-0.99-0.04-2.12-0.04-3.54c6.44-0.82,10.58,2.77,13.24,7.11c11.36,18.52,22.65,37.12,24.67,59.6
		c0.21,2.37,2.44,6.03,4.31,6.44c2.76,0.6,7.04-0.18,8.93-2.1c12.47-12.58,18.48-39.3-1.83-54.7c-6.46-4.9-13.58-8.93-20.21-13.62
		c-2.85-2.01-5.5-4.44-7.78-7.07c-6.07-7-6.01-9.42-0.34-16.5c5.89-7.37,4.79-10.67-2.71-16.68c-6.75-5.41-12.84-11.83-18.37-18.5
		c-4.44-5.35-3.49-9.32,2.81-12.13c8.78-3.91,17.82-7.62,27.12-9.86c13.38-3.22,22.02-10.18,24.54-24.08
		c2.24-12.34,9.61-19.29,22.25-20.53c15.44-1.51,25.29-9.77,30.29-24.49c1.2-3.53,4.12-6.66,6.76-9.49
		c9.72-10.38,19.76-20.47,29.48-30.85c4.91-5.24,9.41-10.87,14.1-16.32c1.13,0.59,2.26,1.18,3.39,1.78c0,4.68-0.06,9.37,0.01,14.05
		c0.18,10.97,2.97,20.76,12.02,28.04c1.26,1.02,2.14,4.08,1.55,5.53c-1.63,4-3.66,8.02-6.37,11.36
		c-9.29,11.42-18.98,22.52-28.44,33.8c-3.54,4.22-6.42,9.09-2.69,14.31c3.8,5.31,9.61,5.86,15.45,3.66
		c9.85-3.71,19.48-8.06,29.44-11.43c5.27-1.78,11.05-2.06,16.6-3.02c0.33,0.53,0.67,1.05,1,1.58c-1.33,2.04-2.39,4.33-4.05,6.06
		c-6.83,7.16-14.29,13.76-20.62,21.32c-4.85,5.8-9.21,12.36-12.24,19.26c-3.37,7.68,1.07,12.83,9.38,11.11
		c6.56-1.36,12.78-4.4,19.08-6.9c2.42-0.96,4.61-2.5,8.45-4.63c-1.43,2.72-2.08,4.08-2.84,5.37c-9.66,16.49-19.47,32.9-28.93,49.5
		c-3.83,6.71-1.76,9.86,5.07,10.18c-2.4,4.42-5.27,9.05-7.42,13.98c-0.9,2.04-1.17,5.18-0.22,7.08c6.39,12.9,0.46,24.96-2.84,36.82
		c-2.85,10.24-4.87,19.94-1.26,30.24c2.37,6.76,1.46,13.38-3.34,18.57c-12.46,13.49-20.05,29.81-27.9,46.04
		c-3.17,6.55-6.83,11.72-14.64,14.66c-10.09,3.79-16.62,12.57-17.61,23.66c-0.83,9.35-0.02,18.85-0.01,28.28
		c0.02,14.65-5.55,20.69-19.74,24.15c-6.37,1.55-12.65,4.88-17.98,8.77c-4.34,3.16-7.87,4.11-12.55,1.88
		c-17.56-8.34-37.11-24.31-34.75-46.53c0.73-6.91,2.49-13.81,4.59-20.46c6.17-19.51,12.66-38.99,12.13-59.75
		c-0.48-18.87-1.9-37.72-2.64-56.59c-0.26-6.58,0.93-13.26,0.22-19.76c-0.62-5.69-1.89-11.85-4.79-16.64
		c-7.35-12.17-21.88-11.97-29.6,0c-2.47,3.83-4.42,8.17-5.69,12.55c-2.97,10.3-9.6,17.58-18,23.63c-6.85,4.94-7.37,10.05-0.87,15.46
		C194.56,742.35,200.39,745.88,205.94,749.78z"/>
	<path class="st0" d="M580.49,299.86c-3.55-12.76-6.84-25.19-10.48-37.52c-3.66-12.41-12.9-18.97-24.77-22.28
		c-13.52-3.77-27.03-7.6-40.7-10.77c-4.98-1.15-10.38-0.69-15.59-0.58c-8.27,0.18-16.58,1.35-24.8,0.86
		c-10.15-0.6-19.65,0.47-28.69,5.36c-9.07,4.91-17.96,10.43-27.55,14.05c-9.72,3.67-20.09,5.9-30.36,7.74
		c-13.18,2.36-18.63,11.05-13.99,23.73c1.66,4.53,2.72,9.3,4.6,13.73c5.07,11.97,0.1,21.66-6.82,32.04
		c-5.05-8.27-4.56-16.78-4.47-25.13c0.03-3.05,0.63-6.13,1.23-9.14c2.69-13.53-0.59-25.56-8.3-36.83
		c-5.29-7.74-11.36-15.45-10.43-25.69c0.39-4.32,1.06-8.82,2.71-12.78c6.16-14.8,9.02-30.31,10.15-46.12
		c0.95-13.36,7.05-23.26,18.94-28.7c13.11-6,26.63-11.22,40.26-15.96c8.45-2.94,16.36-6.15,22.51-12.93
		c6.82-7.52,16.1-10.27,25.63-10.19c29.32,0.22,58.81-1.85,87.76,5.34c10.73,2.67,16,8.6,17.54,19.86
		c1.25,9.14,4.88,18.09,8.37,26.76c5.95,14.76,10.49,29.66,11.08,45.75c0.69,19.07,1.11,38.25,7.38,56.62
		c2.87,8.42,1.69,16.32-2.49,24.12C585.93,287.29,583.31,293.75,580.49,299.86z"/>
	<path class="st0" d="M667.21,727.55c0.88,4.5,1.47,9.08,2.68,13.49c3.66,13.3,9.96,16.79,23.58,13.43c2.3-0.57,4.62-1.04,7.38-0.69
		c-3.92,2.65-8.01,5.09-11.72,8.01c-3.42,2.7-6.87,5.58-9.5,9c-4.76,6.2-2.42,12.95,5.27,13.48c10.86,0.75,21.84-0.15,32.76-0.37
		c0.65-0.01,1.29-0.28,1.94-0.39c15.47-2.72,17.96-1.28,24.3,14.97c-6.42-0.71-12.33-1.8-18.26-1.93
		c-11.17-0.25-22.35-0.03-33.53,0.16c-6.36,0.11-8.61,4.14-9.07,9.94c-0.58,7.38,1.1,13.92,6.11,19.52
		c2.92,3.26,5.69,6.65,9.24,10.83c-8.39,3.7-16.31,2.66-24.22,1.86c-3.48-0.35-7.22-1.52-10.38-0.65c-2.92,0.8-5.43,3.63-7.73,5.96
		c-2.33,2.36-3.81,5.64-6.31,7.74c-10.53,8.81-23.89,14.08-32.07,25.93c-1.01,1.46-3.74,2.14-5.77,2.43
		c-11.92,1.74-23.88,3.25-36.4,4.92c12-9.73,23.63-18.97,35.05-28.45c15.45-12.83,27.83-27.81,34.59-47.23
		c3.22-9.27,8.45-17.84,12.72-26.75c7.19-15.01,9.89-30.84,8.75-47.41c-0.18-2.57,0.37-5.19,0.59-7.8
		C667.23,727.51,667.21,727.55,667.21,727.55z"/>
	<path class="st0" d="M374,283.45c-0.73-2.15-2-4.99-2.65-7.97c-1.13-5.23,0.32-9.78,6.24-10.17c21.11-1.4,38.96-11.59,57.15-20.75
		c10.79-5.43,21.65-7.36,33.74-6.17c7.45,0.73,15.17-1.48,22.79-2.2c3.22-0.3,6.66-0.88,9.68-0.11
		c13.17,3.36,26.18,7.35,39.34,10.76c12.13,3.14,20.07,10,23.02,22.59c2.08,8.89,5.07,17.57,6.93,26.58
		c-8.88-5.59-12.03-14.42-14.27-23.49c-2.94-11.9-9.79-18.77-22.22-19.85c-8.09-0.7-16.21-1.37-24.22-2.65
		c-11.87-1.89-23.58-5.01-35.49-6.32c-14.86-1.63-29.14,0.84-42.6,8.31c-13.78,7.65-28.23,14.07-42.2,21.4
		C383.97,276.19,379.23,279.97,374,283.45z"/>
	<path class="st0" d="M458.21,427.89c5.36,12.24,5.36,12.24,18.66,10.56c1.08-0.14,2.29-0.38,3.25-0.05
		c6.44,2.24,16,20.3,13.97,26.85c-0.41,1.31-2.65,2.44-4.26,2.9c-8.61,2.46-17.41,4.3-25.91,7.1c-8.24,2.71-27.78-3.93-31.59-11.6
		c-0.67-1.34-0.97-3.79-0.21-4.76c7.82-10.05,15.88-19.9,23.91-29.78C456.43,428.64,457.15,428.47,458.21,427.89z"/>
	<path class="st0" d="M269.38,703.47c-5.13-13.14-10.34-26.52-15.32-39.3C273.64,671.28,279.98,687.66,269.38,703.47z"/>
	<path class="st0" d="M555.55,440.79c6.03-12.53,12.42-25.83,18.52-38.51C581.77,415.65,572.65,434.51,555.55,440.79z"/>
	<path class="st0" d="M429.67,624.16c-1.8,14.5-12.31,16.36-22.62,18.48C414.24,636.76,421.44,630.88,429.67,624.16z"/>
	<path class="st0" d="M418.66,333.89c1.59,2.08,2.73,3.57,4.83,6.32c-5.84,0.57-10.57,1.02-15.29,1.48
		c-0.21-0.75-0.42-1.51-0.62-2.26C411.09,337.66,414.61,335.91,418.66,333.89z"/>
</g>
</svg>
