<?xml version="1.0" encoding="utf-8"?>
<!-- Generator: Adobe Illustrator 26.4.1, SVG Export Plug-In . SVG Version: 6.00 Build 0)  -->
<svg version="1.2" baseProfile="tiny" id="Layer_1" xmlns="http://www.w3.org/2000/svg" xmlns:xlink="http://www.w3.org/1999/xlink"
	 x="0px" y="0px" viewBox="0 0 49 49" overflow="visible" xml:space="preserve">
<g>
	<path fill="#F8F8F8" stroke="#000000" stroke-miterlimit="10" d="M36.44,48.5H12.56C5.9,48.5,0.5,43.1,0.5,36.44l0-23.87
		C0.5,5.9,5.9,0.5,12.56,0.5h23.87c6.66,0,12.06,5.4,12.06,12.06v23.87C48.5,43.1,43.1,48.5,36.44,48.5z"/>
	<g>
		<path d="M9.43,25.09l1.34,0.48c-0.35,0.98-1.34,1.58-2.6,1.58c-1.73,0-2.88-1.15-2.88-2.88c0-1.73,1.15-2.88,2.88-2.88
			c1.26,0,2.25,0.59,2.6,1.58l-1.34,0.48c-0.22-0.54-0.67-0.87-1.28-0.87c-0.69,0-1.17,0.43-1.34,1.12h1.97v1.04H6.79
			c0.15,0.76,0.63,1.23,1.36,1.23C8.76,25.96,9.2,25.62,9.43,25.09z"/>
		<path d="M17.6,22.26c0,1.43-1,2.27-2.69,2.27h-1.43v2.53H11.9v-7.06h3.01C16.6,19.99,17.6,20.85,17.6,22.26z M15.99,22.3
			c0-0.65-0.45-0.97-1.26-0.97h-1.25v1.93h1.25C15.54,23.26,15.99,22.93,15.99,22.3z"/>
		<path d="M18.11,24.27c0-1.73,1.17-2.88,2.92-2.88c1.77,0,2.92,1.13,2.92,2.88c0,1.73-1.17,2.88-2.92,2.88
			C19.26,27.15,18.11,26.02,18.11,24.27z M22.42,24.27c0-1.04-0.54-1.65-1.39-1.65s-1.39,0.61-1.39,1.65c0,1.04,0.54,1.65,1.39,1.65
			S22.42,25.31,22.42,24.27z"/>
		<path d="M29.42,25.46c0,0.98-1.04,1.69-2.51,1.69c-1.13,0-2.06-0.48-2.51-1.38l1.13-0.63c0.28,0.54,0.76,0.82,1.39,0.82
			c0.61,0,1-0.24,1-0.63c0-0.35-0.32-0.58-0.85-0.58h-0.76v-1.02h0.72c0.43,0,0.73-0.22,0.73-0.58c0-0.37-0.32-0.58-0.85-0.58
			c-0.58,0-1.04,0.26-1.34,0.74l-0.98-0.76c0.5-0.74,1.36-1.17,2.42-1.17c1.32,0,2.19,0.65,2.19,1.64c0,0.52-0.24,0.91-0.69,1.15
			C29.09,24.4,29.42,24.86,29.42,25.46z"/>
		<path d="M35.74,21.48l-1.93,5.58c-0.45,1.26-1.17,1.95-2.19,1.95c-1.38,0-1.84-0.91-1.9-1.77L31.12,27
			c0.02,0.45,0.17,0.72,0.54,0.72c0.22,0,0.39-0.13,0.56-0.39l-2.62-5.85h1.64l1.69,4.2l1.26-4.2H35.74z"/>
		<path d="M43.72,27.06h-1.43v-3.87l-1.39,3.87h-1.45l-1.39-3.87v3.87h-1.43v-5.58h2.17l1.39,3.85l1.38-3.85h2.16V27.06z"/>
	</g>
</g>
</svg>
